<?xml version="1.0" standalone="no"?><!DOCTYPE svg PUBLIC "-//W3C//DTD SVG 1.1//EN" "http://www.w3.org/Graphics/SVG/1.1/DTD/svg11.dtd"><svg t="1589276223696" class="icon" viewBox="0 0 1024 1024" version="1.1" xmlns="http://www.w3.org/2000/svg" p-id="7180" width="128" height="128" xmlns:xlink="http://www.w3.org/1999/xlink"><defs><style type="text/css">@font-face { font-family: uc-nexus-iconfont; src: url("chrome-extension://pogijhnlcfmcppgimcaccdkmbedjkmhi/res/font_9qmmi8b8jsxxbt9.woff") format("woff"), url("chrome-extension://pogijhnlcfmcppgimcaccdkmbedjkmhi/res/font_9qmmi8b8jsxxbt9.ttf") format("truetype"); }
</style></defs><path d="M246.728 885.289c-14.367 0-26.05-11.684-26.05-26.05s11.683-26.051 26.05-26.051h26.5V713.196c0-81.199 67.994-134.385 117.643-173.225 13.67-10.696 30.582-23.926 38.41-32.707l3.676-4.127-3.84-3.973c-8.105-8.371-25.22-20.674-38.978-30.561-49.874-35.84-118.16-84.92-118.16-163.338V190.812h-25.256a26.081 26.081 0 0 1-26.051-26.05 26.081 26.081 0 0 1 26.05-26.051h530.56a26.081 26.081 0 0 1 26.051 26.05 26.076 26.076 0 0 1-26.05 26.051h-25.257v114.463c0 78.428-68.296 127.503-118.155 163.338-13.778 9.902-30.889 22.2-38.973 30.561l-3.845 3.974 3.681 4.126c7.818 8.776 24.71 21.99 38.287 32.61 49.767 38.927 117.755 92.103 117.755 173.322v119.992h26.512a26.081 26.081 0 0 1 26.055 26.046 25.897 25.897 0 0 1-7.623 18.426 25.882 25.882 0 0 1-18.422 7.63h-530.57z m77.353-580.014c0 51.702 53.483 90.137 96.46 121.026 36.296 26.087 64.958 46.685 64.958 76.683 0 29.117-27.587 50.693-62.51 78.018-43.52 34.038-97.654 76.386-97.654 132.194v119.987h373.34V713.196c0-55.803-54.134-98.156-97.633-132.178-34.939-27.341-62.526-48.922-62.526-78.04 0-29.992 28.662-50.59 64.948-76.671 42.987-30.89 96.47-69.33 96.47-121.032V190.812H324.082v114.463z" fill="#f68b21" p-id="7181"></path><path d="M414.781 759.47c-13.26 0-24.048-10.788-24.048-24.049s10.788-24.048 24.048-24.048h194.443c13.26 0 24.048 10.788 24.048 24.048s-10.788 24.05-24.048 24.05H414.78z" fill="#f68b21" p-id="7182"></path></svg>